# xmcd CD database file
#
# Track frame offsets:
#	150
#	15418
#	39367
#	53507
#	78927
#	103775
#	121190
#	138077
#	161079
#	188437
#	201266
#	217954
#	234773
#	246529
#	266034
#	287464
#
# Disc length: 3886 seconds
#
# Revision: 0
# Processed by: cddbd v1.5.2PL0 Copyright (c) Steve Scherf et al.
# Submitted via: CDex 1.51
#
DISCID=cb0f2c10
DTITLE=Blodwyn Pig - Ahead Ringsout
DYEAR=1969
DGENRE=Blues
TTITLE0=It`s Only Love
TTITLE1=Dear Jill
TTITLE2=Sing Me A Song That I Know
TTITLE3=The Modern Alchemist
TTITLE4=Up And Coming
TTITLE5=Leave It With Me
TTITLE6=The Change Song
TTITLE7=See My Way
TTITLE8=Ain`t Ya Comin' Home, Babe?
TTITLE9=Sweet Caroline
TTITLE10=Walk On The Water
TTITLE11=Summer Day
TTITLE12=Same Old Story
TTITLE13=Slow Down
TTITLE14=Meanie Mornay
TTITLE15=Backwash
EXTD=YEAR: 1969
EXTT0=
EXTT1=
EXTT2=
EXTT3=
EXTT4=
EXTT5=
EXTT6=
EXTT7=
EXTT8=
EXTT9=
EXTT10=
EXTT11=
EXTT12=
EXTT13=
EXTT14=
EXTT15=
PLAYORDER=
